<svg width="120" height="30" viewBox="0 0 120 30" fill="none" xmlns="http://www.w3.org/2000/svg">
<g clip-path="url(#clip0_301_3)">
<g clip-path="url(#clip1_301_3)">
<g clip-path="url(#clip2_301_3)">
<path d="M38.0825 1.13261C38.0825 0.471825 37.8121 -0.0638428 37.4785 -0.0638428C37.145 -0.0638428 36.8746 0.471825 36.8746 1.13261V27.9074C36.8746 28.5682 37.145 29.1039 37.4785 29.1039C37.8121 29.1039 38.0825 28.5682 38.0825 27.9074V1.13261Z" fill="#001C30"/>
<g clip-path="url(#clip3_301_3)">
<g clip-path="url(#clip4_301_3)">
<g clip-path="url(#clip5_301_3)">
<g clip-path="url(#clip6_301_3)">
<path d="M55.4055 6.02873V8.51589C55.4055 9.30888 55.2691 10.0376 54.9965 10.7019C54.724 11.3685 54.3459 11.9436 53.8626 12.4269C53.3793 12.9128 52.8057 13.2894 52.1413 13.5571C51.4796 13.8274 50.7583 13.9623 49.9776 13.9623H46.7841C46.0034 13.9623 45.2795 13.8274 44.613 13.5571C43.9486 13.2894 43.3738 12.9128 42.8879 12.4269C42.4046 11.9436 42.0254 11.3685 41.7503 10.7019C41.4752 10.0376 41.3376 9.30888 41.3376 8.51589V6.02873C41.3376 5.24318 41.4752 4.51562 41.7503 3.84643C42.0254 3.17724 42.4046 2.60211 42.8879 2.12141C43.3738 1.64071 43.9486 1.26373 44.613 0.991224C45.2795 0.718715 46.0034 0.582275 46.7841 0.582275H49.9776C50.7583 0.582275 51.4796 0.718715 52.1413 0.991224C52.8057 1.26373 53.3793 1.64071 53.8626 2.12141C54.3459 2.60211 54.724 3.17724 54.9965 3.84643C55.2691 4.51562 55.4055 5.24318 55.4055 6.02873ZM53.0447 8.51589V6.02873C53.0447 5.5629 52.9704 5.1402 52.8217 4.76099C52.6756 4.38439 52.4674 4.06095 52.1971 3.79067C51.9268 3.52299 51.6034 3.3148 51.2268 3.16609C50.8476 3.01738 50.4312 2.94303 49.9776 2.94303H46.7841C46.3231 2.94303 45.903 3.01738 45.5238 3.16609C45.1472 3.3148 44.8223 3.52299 44.5498 3.79067C44.2772 4.06095 44.0665 4.38439 43.9177 4.76099C43.7716 5.1402 43.6984 5.5629 43.6984 6.02873V8.51589C43.6984 8.98172 43.7716 9.40442 43.9177 9.78363C44.0665 10.1602 44.2772 10.4837 44.5498 10.754C44.8223 11.0216 45.1472 11.2298 45.5238 11.3785C45.903 11.5272 46.3231 11.6016 46.7841 11.6016H49.959C50.42 11.6016 50.839 11.5272 51.2156 11.3785C51.5948 11.2298 51.9209 11.0216 52.1934 10.754C52.4659 10.4837 52.6756 10.1602 52.8217 9.78363C52.9704 9.40442 53.0447 8.98172 53.0447 8.51589ZM70.7448 0.764444V12.7727C70.7448 12.9411 70.7125 13.0987 70.6481 13.2448C70.5861 13.3909 70.502 13.5162 70.3953 13.6203C70.2886 13.727 70.1637 13.8099 70.0198 13.8694C69.8737 13.9315 69.7187 13.9623 69.5551 13.9623C69.4113 13.9623 69.2652 13.9352 69.1164 13.8806C68.9677 13.8259 68.8365 13.7382 68.7224 13.6166L60.0973 4.61228V13.7802H57.7365V1.77195C57.7365 1.52918 57.8045 1.30983 57.941 1.11391C58.0774 0.917986 58.2522 0.771879 58.4652 0.675218C58.6882 0.583391 58.9176 0.55997 59.153 0.604582C59.3883 0.651797 59.5916 0.761842 59.7627 0.935459L68.3841 9.93234V0.764444H70.7448ZM85.4409 11.4194V13.7802H74.6744C74.506 13.7802 74.3484 13.7504 74.2023 13.691C74.0584 13.6289 73.9335 13.5448 73.8268 13.4381C73.7201 13.3341 73.6372 13.2088 73.5777 13.0627C73.5156 12.9188 73.4848 12.7615 73.4848 12.5905V0.764444H75.8455V11.4194H85.4409ZM89.5527 0.764444V13.7802H87.192V0.764444H89.5527ZM105.316 0.764444V12.7727C105.316 12.9411 105.285 13.0987 105.223 13.2448C105.159 13.3909 105.073 13.5162 104.966 13.6203C104.862 13.727 104.737 13.8099 104.591 13.8694C104.445 13.9315 104.29 13.9623 104.126 13.9623C103.982 13.9623 103.836 13.9352 103.688 13.8806C103.539 13.8259 103.408 13.7382 103.293 13.6166L94.6683 4.61228V13.7802H92.3113V1.77195C92.3113 1.52918 92.3793 1.30983 92.5158 1.11391C92.6522 0.917986 92.8255 0.771879 93.0362 0.675218C93.2593 0.583391 93.4898 0.55997 93.7277 0.604582C93.9631 0.651797 94.1653 0.761842 94.3337 0.935459L102.955 9.93234V0.764444H105.316ZM118.759 6.0845V8.46012H111.309V6.0845H118.759ZM119.822 11.4194V13.7802H111.309C110.982 13.7802 110.625 13.7233 110.238 13.6092C109.849 13.4928 109.49 13.3032 109.16 13.0404C108.83 12.7775 108.555 12.4355 108.335 12.0143C108.114 11.593 108.004 11.0774 108.004 10.4677V1.95411C108.004 1.79053 108.034 1.6355 108.093 1.4894C108.155 1.34552 108.238 1.21912 108.342 1.11019C108.449 1.00126 108.575 0.915755 108.721 0.853669C108.865 0.794185 109.022 0.764444 109.193 0.764444H119.822V3.1252H110.365V10.4677C110.365 10.7751 110.446 11.0105 110.61 11.1741C110.773 11.3376 111.011 11.4194 111.324 11.4194H119.822Z" fill="#001C30"/>
<path d="M54.253 24.4463C54.253 24.9121 54.1935 25.3311 54.0745 25.7029C53.9582 26.0747 53.8031 26.4029 53.6098 26.6881C53.4139 26.9706 53.186 27.2123 52.9258 27.413C52.6655 27.6138 52.3967 27.7774 52.119 27.9038C51.8413 28.0302 51.5588 28.1242 51.2714 28.1863C50.984 28.2458 50.7126 28.2755 50.4572 28.2755H41.3562V25.9148H50.4572C50.9134 25.9148 51.2665 25.7821 51.5167 25.517C51.767 25.2493 51.8922 24.8924 51.8922 24.4463C51.8922 24.2281 51.8588 24.0288 51.7919 23.8477C51.7249 23.6645 51.6294 23.5068 51.5056 23.3756C51.3818 23.2417 51.2305 23.1388 51.052 23.067C50.8736 22.9927 50.6754 22.9555 50.4572 22.9555H45.0293C44.6501 22.9555 44.2386 22.8874 43.795 22.751C43.3538 22.6146 42.9448 22.3952 42.5682 22.093C42.189 21.7907 41.8741 21.3952 41.6239 20.907C41.3711 20.4163 41.2447 19.8166 41.2447 19.1076C41.2447 18.4013 41.3711 17.8038 41.6239 17.3157C41.8741 16.8276 42.189 16.4309 42.5682 16.126C42.9448 15.8212 43.3538 15.6007 43.795 15.4643C44.2386 15.3278 44.6501 15.2598 45.0293 15.2598H53.0633V17.6206H45.0293C44.5832 17.6206 44.2337 17.757 43.9809 18.0295C43.7307 18.302 43.6054 18.6615 43.6054 19.1076C43.6054 19.5612 43.7307 19.9192 43.9809 20.1821C44.2337 20.4471 44.5832 20.5799 45.0293 20.5799H50.4572H50.4758C50.7312 20.5847 51.0011 20.6196 51.2862 20.684C51.5688 20.746 51.8513 20.8438 52.1339 20.9777C52.4138 21.1115 52.6815 21.2799 52.9369 21.4833C53.1897 21.684 53.4154 21.9268 53.6135 22.2119C53.8095 22.4971 53.9656 22.8242 54.082 23.1934C54.1961 23.5626 54.253 23.9805 54.253 24.4463ZM67.8413 15.2598V17.6206H62.6402V28.2755H60.2794V17.6206H55.0709V15.2598H67.8413ZM83.0504 20.5241V23.0112C83.0504 23.8042 82.9155 24.5329 82.6452 25.1973C82.3727 25.8639 81.9935 26.439 81.5076 26.9223C81.0243 27.4082 80.4518 27.7848 79.79 28.0525C79.1256 28.3228 78.4044 28.4577 77.6263 28.4577H74.4291C73.6483 28.4577 72.926 28.3228 72.2616 28.0525C71.595 27.7848 71.0199 27.4082 70.5366 26.9223C70.0507 26.439 69.6704 25.8639 69.3953 25.1973C69.1201 24.5329 68.9826 23.8042 68.9826 23.0112V20.5241C68.9826 19.7385 69.1201 19.011 69.3953 18.3418C69.6704 17.6726 70.0507 17.0975 70.5366 16.6168C71.0199 16.1361 71.595 15.7591 72.2616 15.4866C72.926 15.2141 73.6483 15.0776 74.4291 15.0776H77.6263C78.4044 15.0776 79.1256 15.2141 79.79 15.4866C80.4518 15.7591 81.0243 16.1361 81.5076 16.6168C81.9935 17.0975 82.3727 17.6726 82.6452 18.3418C82.9155 19.011 83.0504 19.7385 83.0504 20.5241ZM80.6934 23.0112V20.5241C80.6934 20.0583 80.6191 19.6356 80.4703 19.2564C80.3216 18.8797 80.1123 18.5563 79.8421 18.286C79.5744 18.0184 79.2509 17.8102 78.8717 17.6615C78.4951 17.5127 78.0799 17.4384 77.6263 17.4384H74.4291C73.9707 17.4384 73.5517 17.5127 73.1725 17.6615C72.7933 17.8102 72.4687 18.0184 72.1984 18.286C71.9259 18.5563 71.7151 18.8797 71.5664 19.2564C71.4177 19.6356 71.3433 20.0583 71.3433 20.5241V23.0112C71.3433 23.4771 71.4177 23.8998 71.5664 24.279C71.7151 24.6556 71.9259 24.979 72.1984 25.2493C72.4687 25.517 72.7933 25.7252 73.1725 25.8739C73.5517 26.0226 73.9707 26.097 74.4291 26.097H77.6077C78.0661 26.097 78.4851 26.0226 78.8643 25.8739C79.2409 25.7252 79.5658 25.517 79.8383 25.2493C80.1108 24.979 80.3216 24.6556 80.4703 24.279C80.6191 23.8998 80.6934 23.4771 80.6934 23.0112ZM98.3898 18.1299V19.6356C98.3898 20.1735 98.324 20.6542 98.1927 21.078C98.0589 21.5019 97.8778 21.8747 97.6499 22.1971C97.4243 22.5216 97.1629 22.7993 96.8655 23.0298C96.5707 23.2603 96.2606 23.4488 95.9361 23.5949C95.6115 23.7436 95.2843 23.8515 94.9546 23.9184C94.6248 23.9853 94.3151 24.0188 94.0252 24.0188L98.9549 28.2755H95.304L90.3855 24.0188H88.6902V21.658H94.0252C94.3226 21.6331 94.594 21.5714 94.8393 21.4721C95.0847 21.3729 95.2966 21.239 95.4751 21.0706C95.6535 20.8996 95.7911 20.6951 95.8877 20.4572C95.9844 20.2166 96.0327 19.943 96.0327 19.6356V18.1448C96.0327 18.0135 96.0153 17.9131 95.9807 17.8436C95.9483 17.7741 95.9063 17.7221 95.8543 17.6875C95.8022 17.6551 95.7476 17.6354 95.6907 17.628C95.6338 17.6232 95.5803 17.6206 95.5308 17.6206H87.7459V28.2755H85.3852V16.4495C85.3852 16.2859 85.4149 16.1309 85.4744 15.9848C85.5365 15.8409 85.6194 15.7145 85.7235 15.6056C85.8302 15.4966 85.9566 15.4111 86.1027 15.349C86.2466 15.2895 86.4038 15.2598 86.5748 15.2598H95.5308C96.0587 15.2598 96.5038 15.3554 96.8655 15.5461C97.2298 15.7368 97.5246 15.9762 97.7503 16.2636C97.9782 16.551 98.1418 16.861 98.241 17.193C98.3403 17.525 98.3898 17.8373 98.3898 18.1299ZM111.461 20.5799V22.9555H104.011V20.5799H111.461ZM112.525 25.9148V28.2755H104.011C103.684 28.2755 103.327 28.2187 102.94 28.1045C102.551 27.9882 102.192 27.7986 101.862 27.5357C101.532 27.2729 101.257 26.9308 101.037 26.5096C100.816 26.0884 100.706 25.5728 100.706 24.9631V16.4495C100.706 16.2859 100.736 16.1309 100.795 15.9848C100.857 15.8409 100.941 15.7145 101.048 15.6056C101.152 15.4966 101.277 15.4111 101.423 15.349C101.567 15.2895 101.725 15.2598 101.896 15.2598H112.525V17.6206H103.067V24.9631C103.067 25.2705 103.148 25.5058 103.312 25.6694C103.476 25.833 103.715 25.9148 104.03 25.9148H112.525Z" fill="#001C30"/>
</g>
</g>
</g>
</g>
<g clip-path="url(#clip7_301_3)">
<g clip-path="url(#clip8_301_3)">
<path d="M20.0203 29.0313L0.177612 29.0221V5.30011H32.5874V17.2057H29.9417V7.5516L2.82331 7.57541V26.3889L20.0203 26.3856V29.0313Z" fill="#001C30"/>
<path d="M0.177612 0.00872803V7.94581H32.5874V0.00872803H0.177612ZM5.469 5.30011H2.82331V2.65442H5.469V5.30011ZM9.43754 5.30011H6.79184V2.65442H9.43754V5.30011ZM13.4061 5.30011H10.7604V2.65442H13.4061V5.30011Z" fill="#001C30"/>
<path d="M24.483 28.7813L21.0012 24.3484L23.0821 22.714L24.9281 25.0647L32.0768 19.44L33.7125 21.5189L24.483 28.7813Z" fill="#001C30"/>
</g>
</g>
</g>
</g>
</g>
<defs>
<clipPath id="clip0_301_3">
<rect width="120" height="29.04" fill="white"/>
</clipPath>
<clipPath id="clip1_301_3">
<rect width="119.645" height="29.1677" fill="white" transform="translate(0.177612 -0.0638428)"/>
</clipPath>
<clipPath id="clip2_301_3">
<rect width="119.645" height="29.1677" fill="white" transform="translate(0.177612 -0.0638428)"/>
</clipPath>
<clipPath id="clip3_301_3">
<rect width="78.5777" height="29.0226" fill="white" transform="translate(41.2447 0.00872803)"/>
</clipPath>
<clipPath id="clip4_301_3">
<rect width="78.5777" height="29.0226" fill="white" transform="translate(41.2447 0.00872803)"/>
</clipPath>
<clipPath id="clip5_301_3">
<rect width="78.5777" height="29.0226" fill="white" transform="translate(41.2447 0.00872803)"/>
</clipPath>
<clipPath id="clip6_301_3">
<rect width="78.5777" height="29.0226" fill="white" transform="translate(41.2447 0.00872803)"/>
</clipPath>
<clipPath id="clip7_301_3">
<rect width="33.5348" height="29.0226" fill="white" transform="translate(0.177612 0.00872803)"/>
</clipPath>
<clipPath id="clip8_301_3">
<rect width="33.5348" height="29.0226" fill="white" transform="translate(0.177612 0.00872803)"/>
</clipPath>
</defs>
</svg>
